<?xml version="1.0" encoding="UTF-8" standalone="no"?>
<!-- Created with Inkscape (http://www.inkscape.org/) -->

<svg
   version="1.1"
   id="svg1"
   width="297mm"
   height="210mm"
   viewBox="0 0 1122.5197 793.70081"
   sodipodi:docname="grafico.svg"
   inkscape:version="1.3.1 (9b9bdc1480, 2023-11-25, custom)"
   xmlns:inkscape="http://www.inkscape.org/namespaces/inkscape"
   xmlns:sodipodi="http://sodipodi.sourceforge.net/DTD/sodipodi-0.dtd"
   xmlns="http://www.w3.org/2000/svg"
   xmlns:svg="http://www.w3.org/2000/svg">
  <defs
     id="defs1">
    <marker
       style="overflow:visible"
       id="marker16"
       refX="0"
       refY="0"
       orient="auto-start-reverse"
       inkscape:stockid="Concave triangle arrow"
       markerWidth="1"
       markerHeight="1"
       viewBox="0 0 1 1"
       inkscape:isstock="true"
       inkscape:collect="always"
       preserveAspectRatio="xMidYMid">
      <path
         transform="scale(0.7)"
         d="M -2,-4 9,0 -2,4 c 2,-2.33 2,-5.66 0,-8 z"
         style="fill:context-stroke;fill-rule:evenodd;stroke:none"
         id="path16" />
    </marker>
    <marker
       style="overflow:visible"
       id="ConcaveTriangle"
       refX="0"
       refY="0"
       orient="auto-start-reverse"
       inkscape:stockid="Concave triangle arrow"
       markerWidth="1"
       markerHeight="1"
       viewBox="0 0 1 1"
       inkscape:isstock="true"
       inkscape:collect="always"
       preserveAspectRatio="xMidYMid">
      <path
         transform="scale(0.7)"
         d="M -2,-4 9,0 -2,4 c 2,-2.33 2,-5.66 0,-8 z"
         style="fill:context-stroke;fill-rule:evenodd;stroke:none"
         id="path14" />
    </marker>
    <marker
       style="overflow:visible"
       id="RoundedArrow"
       refX="0"
       refY="0"
       orient="auto-start-reverse"
       inkscape:stockid="Rounded arrow"
       markerWidth="0.001"
       markerHeight="0.001"
       viewBox="0 0 1 1"
       inkscape:isstock="true"
       inkscape:collect="always"
       preserveAspectRatio="xMidYMid">
      <path
         transform="scale(0.7)"
         d="m -0.21114562,-4.1055728 6.42229122,3.21114561 a 1,1 90 0 1 0,1.78885438 L -0.21114562,4.1055728 A 1.236068,1.236068 31.717474 0 1 -2,3 v -6 a 1.236068,1.236068 148.28253 0 1 1.78885438,-1.1055728 z"
         style="fill:context-stroke;fill-rule:evenodd;stroke:none"
         id="path13" />
    </marker>
  </defs>
  <sodipodi:namedview
     id="namedview1"
     pagecolor="#ffffff"
     bordercolor="#000000"
     borderopacity="0.25"
     inkscape:showpageshadow="2"
     inkscape:pageopacity="0.0"
     inkscape:pagecheckerboard="0"
     inkscape:deskcolor="#d1d1d1"
     inkscape:zoom="0.70710678"
     inkscape:cx="736.80527"
     inkscape:cy="288.49957"
     inkscape:window-width="1854"
     inkscape:window-height="1011"
     inkscape:window-x="0"
     inkscape:window-y="0"
     inkscape:window-maximized="1"
     inkscape:current-layer="g1"
     showguides="true"
     inkscape:document-units="mm">
    <inkscape:page
       x="0"
       y="0"
       inkscape:label="1"
       id="page1"
       width="1122.5198"
       height="793.70081"
       margin="0"
       bleed="0" />
  </sodipodi:namedview>
  <g
     id="g1"
     inkscape:groupmode="layer"
     inkscape:label="1">
    <text
       xml:space="preserve"
       style="font-size:8px;fill:#483e37;stroke:#000000;stroke-width:0.2;stroke-dasharray:none"
       x="18.221094"
       y="431.63751"
       id="text48"><tspan
         sodipodi:role="line"
         id="tspan47"
         x="18.221094"
         y="431.63751"
         style="font-size:8px">282</tspan><tspan
         sodipodi:role="line"
         x="18.221094"
         y="441.63751"
         style="font-size:8px"
         id="tspan48" /></text>
    <path
       id="path1"
       d="M 1093.9502,765.71377 V 47.633773 m -1058.24031,0 V 765.71377"
       style="fill:none;stroke:#ff9f7f;stroke-width:1.28;stroke-linecap:round;stroke-linejoin:round;stroke-miterlimit:10;stroke-dasharray:none;stroke-opacity:1" />
    <path
       id="path2"
       d="M 39.38989,47.633773 V 765.71377"
       style="fill:none;stroke:#ff9f7f;stroke-width:0.8;stroke-linecap:round;stroke-linejoin:round;stroke-miterlimit:10;stroke-dasharray:none;stroke-opacity:1" />
    <path
       id="path3"
       d="M 54.58989,47.633773 V 765.71377"
       style="fill:none;stroke:#ff9f7f;stroke-width:1.12;stroke-linecap:round;stroke-linejoin:round;stroke-miterlimit:10;stroke-dasharray:none;stroke-opacity:1" />
    <path
       id="path4"
       d="M 35.70989,765.71377 H 1093.9502"
       style="fill:none;stroke:#ff9f7f;stroke-width:1.28;stroke-linecap:round;stroke-linejoin:round;stroke-miterlimit:10;stroke-dasharray:none;stroke-opacity:1" />
    <path
       id="path5"
       d="M 35.70989,761.87377 H 1093.9502"
       style="fill:none;stroke:#ff9f7f;stroke-width:0.8;stroke-linecap:round;stroke-linejoin:round;stroke-miterlimit:10;stroke-dasharray:none;stroke-opacity:1" />
    <path
       id="path6"
       d="M 35.70989,746.83377 H 1093.9502"
       style="fill:none;stroke:#ff9f7f;stroke-width:1.12;stroke-linecap:round;stroke-linejoin:round;stroke-miterlimit:10;stroke-dasharray:none;stroke-opacity:1" />
    <path
       id="path7"
       d="M 35.70989,727.79377 H 1093.9502 M 35.70989,690.03377 H 1093.9502 M 35.70989,652.27377 H 1093.9502 M 35.70989,614.51377 H 1093.9502 M 35.70989,576.75377 H 1093.9502 M 35.70989,538.99377 H 1093.9502 M 35.70989,501.07377 H 1093.9502 M 35.70989,463.31377 H 1093.9502 M 35.70989,425.55377 H 1093.9502 M 35.70989,387.79377 H 1093.9502 M 35.70989,350.03377 H 1093.9502 M 35.70989,312.27377 H 1093.9502 M 35.70989,274.35377 H 1093.9502 M 35.70989,236.59377 H 1093.9502 M 35.70989,198.83377 H 1093.9502 M 35.70989,161.07377 H 1093.9502 M 35.70989,123.31377 H 1093.9502 M 35.70989,85.553773 H 1093.9502 M 35.70989,47.633773 H 1093.9502 m -1020.48031,0 V 765.71377 m 37.76,-718.079997 V 765.71377 m 37.76,-718.079997 V 765.71377 m 37.92,-718.079997 V 765.71377 m 37.76,-718.079997 V 765.71377 m 37.76,-718.079997 V 765.71377 m 37.76,-718.079997 V 765.71377 m 37.76,-718.079997 V 765.71377 m 37.92,-718.079997 V 765.71377 m 37.76,-718.079997 V 765.71377 m 37.76,-718.079997 V 765.71377 m 37.76,-718.079997 V 765.71377 m 37.92,-718.079997 V 765.71377 m 37.76,-718.079997 V 765.71377 m 37.76,-718.079997 V 765.71377 m 37.76,-718.079997 V 765.71377 m 37.76,-718.079997 V 765.71377 m 37.92,-718.079997 V 765.71377 m 37.76,-718.079997 V 765.71377 m 37.76,-718.079997 V 765.71377 m 37.76,-718.079997 V 765.71377 m 37.92,-718.079997 V 765.71377 m 37.76,-718.079997 V 765.71377 m 37.76,-718.079997 V 765.71377 M 980.51021,47.633773 V 765.71377 M 1018.2702,47.633773 V 765.71377 m 37.92,-718.079997 V 765.71377"
       style="fill:none;stroke:#ff9f7f;stroke-width:1.28;stroke-linecap:round;stroke-linejoin:round;stroke-miterlimit:10;stroke-dasharray:none;stroke-opacity:1" />
    <path
       id="path8"
       d="M 92.34989,47.633773 V 765.71377 m 37.76,-718.079997 V 765.71377 m 37.76,-718.079997 V 765.71377 m 37.92,-718.079997 V 765.71377 m 37.76,-718.079997 V 765.71377 m 37.76,-718.079997 V 765.71377 m 37.76,-718.079997 V 765.71377 m 37.92,-718.079997 V 765.71377 m 37.76,-718.079997 V 765.71377 m 37.76,-718.079997 V 765.71377 m 37.76,-718.079997 V 765.71377 m 37.76,-718.079997 V 765.71377 m 37.92,-718.079997 V 765.71377 m 37.76,-718.079997 V 765.71377 m 37.76,-718.079997 V 765.71377 m 37.76,-718.079997 V 765.71377 m 37.92,-718.079997 V 765.71377 m 37.76,-718.079997 V 765.71377 m 37.76,-718.079997 V 765.71377 m 37.76,-718.079997 V 765.71377 m 37.76,-718.079997 V 765.71377 m 37.92,-718.079997 V 765.71377 m 37.76,-718.079997 V 765.71377 m 37.76,-718.079997 V 765.71377 M 999.39021,47.633773 V 765.71377 M 1037.3102,47.633773 V 765.71377 m 37.76,-718.079997 V 765.71377 m -1039.36031,-56.8 H 1093.9502 M 35.70989,671.15377 H 1093.9502 M 35.70989,633.39377 H 1093.9502 M 35.70989,595.63377 H 1093.9502 M 35.70989,557.87377 H 1093.9502 M 35.70989,520.11377 H 1093.9502 M 35.70989,482.19377 H 1093.9502 M 35.70989,444.43377 H 1093.9502 M 35.70989,406.67377 H 1093.9502 M 35.70989,368.91377 H 1093.9502 M 35.70989,331.15377 H 1093.9502 M 35.70989,293.23377 H 1093.9502 M 35.70989,255.47377 H 1093.9502 M 35.70989,217.71377 H 1093.9502 M 35.70989,179.95377 H 1093.9502 M 35.70989,142.19377 H 1093.9502 M 35.70989,104.43377 H 1093.9502 M 35.70989,66.513773 H 1093.9502"
       style="fill:none;stroke:#ff9f7f;stroke-width:1.12;stroke-linecap:round;stroke-linejoin:round;stroke-miterlimit:10;stroke-dasharray:none;stroke-opacity:1" />
    <path
       id="path9"
       d="M 35.70989,758.03377 H 1093.9502 m -1058.24031,-3.68 H 1093.9502 m -1058.24031,-3.84 H 1093.9502 m -1058.24031,-7.52 H 1093.9502 m -1058.24031,-3.84 H 1093.9502 m -1058.24031,-3.68 H 1093.9502 m -1058.24031,-3.84 H 1093.9502 m -1058.24031,-7.52 H 1093.9502 m -1058.24031,-3.84 H 1093.9502 m -1058.24031,-3.68 H 1093.9502 m -1058.24031,-3.84 H 1093.9502 m -1058.24031,-7.52 H 1093.9502 m -1058.24031,-3.84 H 1093.9502 m -1058.24031,-3.68 H 1093.9502 m -1058.24031,-3.84 H 1093.9502 m -1058.24031,-7.52 H 1093.9502 m -1058.24031,-3.84 H 1093.9502 m -1058.24031,-3.84 H 1093.9502 m -1058.24031,-3.68 H 1093.9502 m -1058.24031,-7.52 H 1093.9502 m -1058.24031,-3.84 H 1093.9502 m -1058.24031,-3.84 H 1093.9502 m -1058.24031,-3.68 H 1093.9502 m -1058.24031,-7.68 H 1093.9502 m -1058.24031,-3.68 H 1093.9502 m -1058.24031,-3.84 H 1093.9502 m -1058.24031,-3.68 H 1093.9502 m -1058.24031,-7.68 H 1093.9502 m -1058.24031,-3.68 H 1093.9502 m -1058.24031,-3.84 H 1093.9502 m -1058.24031,-3.68 H 1093.9502 m -1058.24031,-7.68 H 1093.9502 m -1058.24031,-3.68 H 1093.9502 m -1058.24031,-3.84 H 1093.9502 m -1058.24031,-3.84 H 1093.9502 m -1058.24031,-7.52 H 1093.9502 m -1058.24031,-3.68 H 1093.9502 m -1058.24031,-3.84 H 1093.9502 m -1058.24031,-3.84 H 1093.9502 m -1058.24031,-7.52 H 1093.9502 m -1058.24031,-3.68 H 1093.9502 m -1058.24031,-3.84 H 1093.9502 m -1058.24031,-3.84 H 1093.9502 m -1058.24031,-7.52 H 1093.9502 m -1058.24031,-3.84 H 1093.9502 m -1058.24031,-3.68 H 1093.9502 m -1058.24031,-3.84 H 1093.9502 m -1058.24031,-7.52 H 1093.9502 m -1058.24031,-3.84 H 1093.9502 m -1058.24031,-3.68 H 1093.9502 m -1058.24031,-3.84 H 1093.9502 m -1058.24031,-7.52 H 1093.9502 m -1058.24031,-3.84 H 1093.9502 m -1058.24031,-3.68 H 1093.9502 m -1058.24031,-3.84 H 1093.9502 m -1058.24031,-7.52 H 1093.9502 m -1058.24031,-3.84 H 1093.9502 m -1058.24031,-3.68 H 1093.9502 m -1058.24031,-3.84 H 1093.9502 m -1058.24031,-7.52 H 1093.9502 m -1058.24031,-3.84 H 1093.9502 m -1058.24031,-3.84 H 1093.9502 m -1058.24031,-3.68 H 1093.9502 m -1058.24031,-7.52 H 1093.9502 m -1058.24031,-3.84 H 1093.9502 m -1058.24031,-3.84 H 1093.9502 m -1058.24031,-3.68 H 1093.9502 m -1058.24031,-7.52 H 1093.9502 m -1058.24031,-3.84 H 1093.9502 m -1058.24031,-3.84 H 1093.9502 m -1058.24031,-3.68 H 1093.9502 m -1058.24031,-7.68 H 1093.9502 m -1058.24031,-3.68 H 1093.9502 m -1058.24031,-3.84 H 1093.9502 m -1058.24031,-3.68 H 1093.9502 m -1058.24031,-7.68 H 1093.9502 m -1058.24031,-3.68 H 1093.9502 m -1058.24031,-3.84 H 1093.9502 m -1058.24031,-3.68 H 1093.9502 m -1058.24031,-7.68 H 1093.9502 m -1058.24031,-3.68 H 1093.9502 m -1058.24031,-3.84 H 1093.9502 m -1058.24031,-3.84 H 1093.9502 m -1058.24031,-7.52 H 1093.9502 m -1058.24031,-3.68 H 1093.9502 m -1058.24031,-3.84 H 1093.9502 m -1058.24031,-3.84 H 1093.9502 m -1058.24031,-7.52 H 1093.9502 m -1058.24031,-3.68 H 1093.9502 m -1058.24031,-3.84 H 1093.9502 m -1058.24031,-3.84 H 1093.9502 m -1058.24031,-7.52 H 1093.9502 m -1058.24031,-3.84 H 1093.9502 m -1058.24031,-3.68 H 1093.9502 m -1058.24031,-3.84 H 1093.9502 m -1058.24031,-7.52 H 1093.9502 m -1058.24031,-3.84 H 1093.9502 m -1058.24031,-3.68 H 1093.9502 m -1058.24031,-3.84 H 1093.9502 m -1058.24031,-7.52 H 1093.9502 m -1058.24031,-3.84 H 1093.9502 m -1058.24031,-3.68 H 1093.9502 m -1058.24031,-3.84 H 1093.9502 m -1058.24031,-7.52 H 1093.9502 m -1058.24031,-3.84 H 1093.9502 m -1058.24031,-3.68 H 1093.9502 m -1058.24031,-3.84 H 1093.9502 m -1058.24031,-7.52 H 1093.9502 m -1058.24031,-3.84 H 1093.9502 m -1058.24031,-3.84 H 1093.9502 m -1058.24031,-3.68 H 1093.9502 m -1058.24031,-7.52 H 1093.9502 m -1058.24031,-3.84 H 1093.9502 m -1058.24031,-3.84 H 1093.9502 m -1058.24031,-3.68 H 1093.9502 m -1058.24031,-7.52 H 1093.9502 m -1058.24031,-3.84 H 1093.9502 m -1058.24031,-3.84 H 1093.9502 m -1058.24031,-3.68 H 1093.9502 m -1058.24031,-7.68 H 1093.9502 m -1058.24031,-3.68 H 1093.9502 m -1058.24031,-3.84 H 1093.9502 m -1058.24031,-3.68 H 1093.9502 m -1058.24031,-7.68 H 1093.9502 m -1058.24031,-3.68 H 1093.9502 m -1058.24031,-3.84 H 1093.9502 m -1058.24031,-3.68 H 1093.9502 m -1058.24031,-7.68 H 1093.9502"
       style="fill:none;stroke:#ff9f7f;stroke-width:0.8;stroke-linecap:round;stroke-linejoin:round;stroke-miterlimit:10;stroke-dasharray:none;stroke-opacity:1" />
    <path
       id="path10"
       d="M 35.70989,153.55377 H 1093.9502 m -1058.24031,-3.84 H 1093.9502 m -1058.24031,-3.84 H 1093.9502 m -1058.24031,-7.52 H 1093.9502 m -1058.24031,-3.68 H 1093.9502 m -1058.24031,-3.84 H 1093.9502 m -1058.24031,-3.84 H 1093.9502 m -1058.24031,-7.52 H 1093.9502 m -1058.24031,-3.84 H 1093.9502 m -1058.24031,-3.68 H 1093.9502 m -1058.24031,-3.84 H 1093.9502 m -1058.24031,-7.52 H 1093.9502 M 35.70989,96.753773 H 1093.9502 m -1058.24031,-3.68 H 1093.9502 m -1058.24031,-3.84 H 1093.9502 m -1058.24031,-7.52 H 1093.9502 m -1058.24031,-3.84 H 1093.9502 m -1058.24031,-3.68 H 1093.9502 m -1058.24031,-3.84 H 1093.9502 m -1058.24031,-7.52 H 1093.9502 m -1058.24031,-3.84 H 1093.9502 m -1058.24031,-3.68 H 1093.9502 m -1058.24031,-3.84 H 1093.9502 m -1050.72031,-3.84 V 765.71377 m 3.84,-718.079997 V 765.71377 m 3.68,-718.079997 V 765.71377 m 7.52,-718.079997 V 765.71377 m 3.84,-718.079997 V 765.71377 m 3.84,-718.079997 V 765.71377 m 3.68,-718.079997 V 765.71377 m 7.68,-718.079997 V 765.71377 m 3.68,-718.079997 V 765.71377 m 3.84,-718.079997 V 765.71377 m 3.68,-718.079997 V 765.71377 m 7.68,-718.079997 V 765.71377 m 3.68,-718.079997 V 765.71377 m 3.84,-718.079997 V 765.71377 m 3.84,-718.079997 V 765.71377 m 7.52,-718.079997 V 765.71377 m 3.68,-718.079997 V 765.71377 m 3.84,-718.079997 V 765.71377 m 3.84,-718.079997 V 765.71377 m 7.52,-718.079997 V 765.71377 m 3.84,-718.079997 V 765.71377 m 3.68,-718.079997 V 765.71377 m 3.84,-718.079997 V 765.71377 m 7.52,-718.079997 V 765.71377 m 3.84,-718.079997 V 765.71377 m 3.68,-718.079997 V 765.71377 m 3.84,-718.079997 V 765.71377 m 7.52,-718.079997 V 765.71377 m 3.84,-718.079997 V 765.71377 m 3.68,-718.079997 V 765.71377 m 3.84,-718.079997 V 765.71377 m 7.52,-718.079997 V 765.71377 m 3.84,-718.079997 V 765.71377 m 3.68,-718.079997 V 765.71377 m 3.84,-718.079997 V 765.71377 m 7.52,-718.079997 V 765.71377 m 3.84,-718.079997 V 765.71377 m 3.84,-718.079997 V 765.71377 m 3.68,-718.079997 V 765.71377 m 7.52,-718.079997 V 765.71377 m 3.84,-718.079997 V 765.71377 m 3.84,-718.079997 V 765.71377 m 3.68,-718.079997 V 765.71377 m 7.68,-718.079997 V 765.71377 m 3.68,-718.079997 V 765.71377 m 3.84,-718.079997 V 765.71377 m 3.68,-718.079997 V 765.71377 m 7.68,-718.079997 V 765.71377 m 3.68,-718.079997 V 765.71377 m 3.84,-718.079997 V 765.71377 m 3.84,-718.079997 V 765.71377 m 7.52,-718.079997 V 765.71377 m 3.68,-718.079997 V 765.71377 m 3.84,-718.079997 V 765.71377 m 3.84,-718.079997 V 765.71377 m 7.52,-718.079997 V 765.71377 m 3.84,-718.079997 V 765.71377 m 3.68,-718.079997 V 765.71377 m 3.84,-718.079997 V 765.71377 m 7.52,-718.079997 V 765.71377 m 3.84,-718.079997 V 765.71377 m 3.68,-718.079997 V 765.71377 m 3.84,-718.079997 V 765.71377 m 7.52,-718.079997 V 765.71377 m 3.84,-718.079997 V 765.71377 m 3.68,-718.079997 V 765.71377 m 3.84,-718.079997 V 765.71377 m 7.52,-718.079997 V 765.71377 m 3.84,-718.079997 V 765.71377 m 3.68,-718.079997 V 765.71377 m 3.84,-718.079997 V 765.71377 m 7.52,-718.079997 V 765.71377 m 3.84,-718.079997 V 765.71377 m 3.84,-718.079997 V 765.71377 m 3.68,-718.079997 V 765.71377 m 7.52,-718.079997 V 765.71377 m 3.84,-718.079997 V 765.71377 m 3.84,-718.079997 V 765.71377 m 3.68,-718.079997 V 765.71377 m 7.68,-718.079997 V 765.71377 m 3.68,-718.079997 V 765.71377 m 3.84,-718.079997 V 765.71377 m 3.68,-718.079997 V 765.71377 m 7.68,-718.079997 V 765.71377 m 3.68,-718.079997 V 765.71377 m 3.84,-718.079997 V 765.71377 m 3.84,-718.079997 V 765.71377 m 7.52,-718.079997 V 765.71377 m 3.68,-718.079997 V 765.71377 m 3.84,-718.079997 V 765.71377 m 3.84,-718.079997 V 765.71377 m 7.52,-718.079997 V 765.71377 m 3.84,-718.079997 V 765.71377 m 3.68,-718.079997 V 765.71377 m 3.84,-718.079997 V 765.71377 m 7.52,-718.079997 V 765.71377 m 3.84,-718.079997 V 765.71377 m 3.68,-718.079997 V 765.71377 m 3.84,-718.079997 V 765.71377 m 7.52,-718.079997 V 765.71377 m 3.84,-718.079997 V 765.71377 m 3.68,-718.079997 V 765.71377 m 3.84,-718.079997 V 765.71377 m 7.52,-718.079997 V 765.71377 m 3.84,-718.079997 V 765.71377"
       style="fill:none;stroke:#ff9f7f;stroke-width:0.8;stroke-linecap:round;stroke-linejoin:round;stroke-miterlimit:10;stroke-dasharray:none;stroke-opacity:1" />
    <path
       id="path11"
       d="M 538.26989,47.633773 V 765.71377 m 3.84,-718.079997 V 765.71377 m 7.52,-718.079997 V 765.71377 m 3.84,-718.079997 V 765.71377 m 3.84,-718.079997 V 765.71377 m 3.68,-718.079997 V 765.71377 m 7.52,-718.079997 V 765.71377 m 3.84,-718.079997 V 765.71377 m 3.84,-718.079997 V 765.71377 m 3.68,-718.079997 V 765.71377 m 7.68,-718.079997 V 765.71377 m 3.68,-718.079997 V 765.71377 m 3.84,-718.079997 V 765.71377 m 3.68,-718.079997 V 765.71377 m 7.68,-718.079997 V 765.71377 m 3.68,-718.079997 V 765.71377 m 3.84,-718.079997 V 765.71377 m 3.84,-718.079997 V 765.71377 m 7.52,-718.079997 V 765.71377 m 3.68,-718.079997 V 765.71377 m 3.84,-718.079997 V 765.71377 m 3.84,-718.079997 V 765.71377 m 7.52,-718.079997 V 765.71377 m 3.68,-718.079997 V 765.71377 m 3.84,-718.079997 V 765.71377 m 3.84,-718.079997 V 765.71377 m 7.52,-718.079997 V 765.71377 m 3.84,-718.079997 V 765.71377 m 3.68,-718.079997 V 765.71377 m 3.84,-718.079997 V 765.71377 m 7.52,-718.079997 V 765.71377 m 3.84,-718.079997 V 765.71377 m 3.68,-718.079997 V 765.71377 m 3.84,-718.079997 V 765.71377 m 7.52,-718.079997 V 765.71377 m 3.84,-718.079997 V 765.71377 m 3.68,-718.079997 V 765.71377 m 3.84,-718.079997 V 765.71377 m 7.52,-718.079997 V 765.71377 m 3.84,-718.079997 V 765.71377 m 3.84,-718.079997 V 765.71377 m 3.68,-718.079997 V 765.71377 m 7.52,-718.079997 V 765.71377 m 3.84,-718.079997 V 765.71377 m 3.84,-718.079997 V 765.71377 m 3.68,-718.079997 V 765.71377 m 7.68,-718.079997 V 765.71377 m 3.68,-718.079997 V 765.71377 m 3.84,-718.079997 V 765.71377 m 3.68,-718.079997 V 765.71377 m 7.68,-718.079997 V 765.71377 m 3.68,-718.079997 V 765.71377 m 3.84,-718.079997 V 765.71377 m 3.84,-718.079997 V 765.71377 m 7.52,-718.079997 V 765.71377 m 3.68,-718.079997 V 765.71377 m 3.84,-718.079997 V 765.71377 m 3.84,-718.079997 V 765.71377 m 7.52,-718.079997 V 765.71377 m 3.68,-718.079997 V 765.71377 m 3.84,-718.079997 V 765.71377 m 3.84,-718.079997 V 765.71377 m 7.52,-718.079997 V 765.71377 m 3.84,-718.079997 V 765.71377 m 3.68,-718.079997 V 765.71377 m 3.84,-718.079997 V 765.71377 m 7.52,-718.079997 V 765.71377 m 3.84,-718.079997 V 765.71377 m 3.68,-718.079997 V 765.71377 m 3.84,-718.079997 V 765.71377 m 7.52,-718.079997 V 765.71377 m 3.84,-718.079997 V 765.71377 m 3.68,-718.079997 V 765.71377 m 3.84,-718.079997 V 765.71377 m 7.52,-718.079997 V 765.71377 m 3.84,-718.079997 V 765.71377 m 3.84,-718.079997 V 765.71377 m 3.68,-718.079997 V 765.71377 m 7.52,-718.079997 V 765.71377 m 3.84,-718.079997 V 765.71377 m 3.84,-718.079997 V 765.71377 m 3.68,-718.079997 V 765.71377 m 7.68,-718.079997 V 765.71377 m 3.68,-718.079997 V 765.71377 m 3.84,-718.079997 V 765.71377 m 3.68,-718.079997 V 765.71377 m 7.68,-718.079997 V 765.71377 m 3.68,-718.079997 V 765.71377 m 3.84,-718.079997 V 765.71377 m 3.84,-718.079997 V 765.71377 M 965.47021,47.633773 V 765.71377 m 3.68,-718.079997 V 765.71377 m 3.84,-718.079997 V 765.71377 m 3.84,-718.079997 V 765.71377 m 7.52,-718.079997 V 765.71377 m 3.68,-718.079997 V 765.71377 m 3.84,-718.079997 V 765.71377 m 3.84,-718.079997 V 765.71377 M 1003.2302,47.633773 V 765.71377 m 3.84,-718.079997 V 765.71377 m 3.68,-718.079997 V 765.71377 m 3.84,-718.079997 V 765.71377 m 7.52,-718.079997 V 765.71377 m 3.84,-718.079997 V 765.71377 m 3.68,-718.079997 V 765.71377 m 3.84,-718.079997 V 765.71377 m 7.52,-718.079997 V 765.71377 m 3.84,-718.079997 V 765.71377 m 3.68,-718.079997 V 765.71377 m 3.84,-718.079997 V 765.71377 m 7.52,-718.079997 V 765.71377 m 3.84,-718.079997 V 765.71377 m 3.84,-718.079997 V 765.71377 m 3.68,-718.079997 V 765.71377 m 7.52,-718.079997 V 765.71377 m 3.84,-718.079997 V 765.71377 m 3.84,-718.079997 V 765.71377 m 3.68,-718.079997 V 765.71377"
       style="fill:none;stroke:#ff9f7f;stroke-width:0.8;stroke-linecap:round;stroke-linejoin:round;stroke-miterlimit:10;stroke-dasharray:none;stroke-opacity:1" />
    <path
       style="fill:#483e37;stroke:#000000;stroke-width:2;stroke-dasharray:none;marker-start:url(#RoundedArrow);marker-end:url(#ConcaveTriangle)"
       d="m 35.70989,765.71377 0,-730.580177"
       id="path12"
       sodipodi:nodetypes="cc" />
    <path
       style="fill:#483e37;stroke:#000000;stroke-width:2;stroke-dasharray:none;marker-end:url(#marker16)"
       d="M 35.70989,765.71377 H 1093.9502 v 0 l 7.4286,0"
       id="path15"
       sodipodi:nodetypes="cccc" />
    <text
       xml:space="preserve"
       style="fill:#483e37;stroke:#000000;stroke-width:0.2;stroke-dasharray:none"
       x="26.198406"
       y="775.36005"
       id="text16"><tspan
         sodipodi:role="line"
         id="tspan16"
         x="26.198406"
         y="775.36005">O</tspan></text>
    <text
       xml:space="preserve"
       style="fill:#483e37;stroke:#000000;stroke-width:0.2;stroke-dasharray:none"
       x="433.33859"
       y="22.533592"
       id="text17"><tspan
         sodipodi:role="line"
         id="tspan17"
         x="433.33859"
         y="22.533592">STUDIO DELLA CAPACITA' DI UN CONDENSATORE</tspan></text>
    <text
       xml:space="preserve"
       style="fill:#483e37;stroke:#000000;stroke-width:0.2;stroke-dasharray:none"
       x="1055.082"
       y="755.49097"
       id="text18"><tspan
         sodipodi:role="line"
         id="tspan18"
         x="1055.082"
         y="755.49097">d(mm)</tspan></text>
    <text
       xml:space="preserve"
       style="fill:#483e37;stroke:#000000;stroke-width:0.2;stroke-dasharray:none"
       x="40.74778"
       y="31.75078"
       id="text19"><tspan
         sodipodi:role="line"
         id="tspan19"
         x="40.74778"
         y="31.75078">C(pF)</tspan></text>
    <text
       xml:space="preserve"
       style="font-size:8px;fill:#483e37;stroke:#000000;stroke-width:0.2;stroke-dasharray:none"
       x="244.7625"
       y="775.16254"
       id="text20"><tspan
         sodipodi:role="line"
         id="tspan20"
         x="244.7625"
         y="775.16254"
         style="font-size:8px">2</tspan><tspan
         sodipodi:role="line"
         x="244.7625"
         y="785.16254"
         style="font-size:8px"
         id="tspan21" /></text>
    <circle
       style="fill:#ff0000;stroke:#000000;stroke-width:0.2;stroke-dasharray:none"
       id="path20"
       cx="247.2"
       cy="765.31378"
       r="2" />
    <circle
       style="fill:#ff0000;stroke:#000000;stroke-width:0.2;stroke-dasharray:none"
       id="circle21"
       cx="353.20001"
       cy="765.31378"
       r="2" />
    <text
       xml:space="preserve"
       style="font-size:8px;fill:#483e37;stroke:#000000;stroke-width:0.2;stroke-dasharray:none"
       x="350.76251"
       y="775.16254"
       id="text23"><tspan
         sodipodi:role="line"
         x="350.76251"
         y="775.16254"
         style="font-size:8px"
         id="tspan23">3</tspan></text>
    <circle
       style="fill:#ff0000;stroke:#000000;stroke-width:0.2;stroke-dasharray:none"
       id="circle24"
       cx="459.20001"
       cy="765.31378"
       r="2" />
    <text
       xml:space="preserve"
       style="font-size:8px;fill:#483e37;stroke:#000000;stroke-width:0.2;stroke-dasharray:none"
       x="456.76251"
       y="775.16254"
       id="text24"><tspan
         sodipodi:role="line"
         x="456.76251"
         y="775.16254"
         style="font-size:8px"
         id="tspan24">4</tspan></text>
    <circle
       style="fill:#ff0000;stroke:#000000;stroke-width:0.2;stroke-dasharray:none"
       id="circle25"
       cx="564.65002"
       cy="765.31378"
       r="2" />
    <circle
       style="fill:#ff0000;stroke:#000000;stroke-width:0.2;stroke-dasharray:none"
       id="circle26"
       cx="670.65002"
       cy="765.31378"
       r="2" />
    <text
       xml:space="preserve"
       style="font-size:8px;fill:#483e37;stroke:#000000;stroke-width:0.2;stroke-dasharray:none"
       x="562.20935"
       y="775.16302"
       id="text26"><tspan
         sodipodi:role="line"
         x="562.20935"
         y="775.16302"
         style="font-size:8px"
         id="tspan26">5</tspan></text>
    <text
       xml:space="preserve"
       style="font-size:8px;fill:#483e37;stroke:#000000;stroke-width:0.2;stroke-dasharray:none"
       x="668.20935"
       y="775.16302"
       id="text27"><tspan
         sodipodi:role="line"
         x="668.20935"
         y="775.16302"
         style="font-size:8px"
         id="tspan27">6</tspan></text>
    <circle
       style="fill:#ff0000;stroke:#000000;stroke-width:0.2;stroke-dasharray:none"
       id="circle27"
       cx="776.45001"
       cy="765.31378"
       r="2" />
    <text
       xml:space="preserve"
       style="font-size:8px;fill:#483e37;stroke:#000000;stroke-width:0.2;stroke-dasharray:none"
       x="773.87775"
       y="775.1059"
       id="text28"><tspan
         sodipodi:role="line"
         x="773.87775"
         y="775.1059"
         style="font-size:8px"
         id="tspan28">7</tspan></text>
    <circle
       style="fill:#ff0000;stroke:#000000;stroke-width:0.2;stroke-dasharray:none"
       id="circle28"
       cx="882.29999"
       cy="765.31378"
       r="2" />
    <text
       xml:space="preserve"
       style="font-size:8px;fill:#483e37;stroke:#000000;stroke-width:0.2;stroke-dasharray:none"
       x="879.87775"
       y="775.1059"
       id="text29"><tspan
         sodipodi:role="line"
         x="879.87775"
         y="775.1059"
         style="font-size:8px"
         id="tspan29">8</tspan></text>
    <circle
       style="fill:#ff0000;stroke:#000000;stroke-width:0.2;stroke-dasharray:none"
       id="circle30"
       cx="987.90002"
       cy="765.31378"
       r="2" />
    <text
       xml:space="preserve"
       style="font-size:8px;fill:#483e37;stroke:#000000;stroke-width:0.2;stroke-dasharray:none"
       x="985.87775"
       y="775.1059"
       id="text30"><tspan
         sodipodi:role="line"
         x="985.87775"
         y="775.1059"
         style="font-size:8px"
         id="tspan30">9</tspan></text>
    <circle
       style="fill:#ff0000;stroke:#000000;stroke-width:0.2;stroke-dasharray:none"
       id="circle31"
       cx="1093.9"
       cy="765.31378"
       r="2" />
    <text
       xml:space="preserve"
       style="font-size:8px;fill:#483e37;stroke:#000000;stroke-width:0.2;stroke-dasharray:none"
       x="1089.2211"
       y="775.1059"
       id="text31"><tspan
         sodipodi:role="line"
         x="1089.2211"
         y="775.1059"
         style="font-size:8px"
         id="tspan31">10</tspan></text>
    <circle
       style="fill:#ff0000;stroke:#000000;stroke-width:0.2;stroke-dasharray:none"
       id="circle32"
       cx="35.309891"
       cy="765.31378"
       r="2" />
    <circle
       style="fill:#ff0000;stroke:#000000;stroke-width:0.2;stroke-dasharray:none"
       id="circle33"
       cx="35.700001"
       cy="743.31378"
       r="2" />
    <text
       xml:space="preserve"
       style="font-size:8px;fill:#483e37;stroke:#000000;stroke-width:0.2;stroke-dasharray:none"
       x="18.221094"
       y="746.28253"
       id="text34"><tspan
         sodipodi:role="line"
         id="tspan33"
         x="18.221094"
         y="746.28253"
         style="font-size:8px">108</tspan><tspan
         sodipodi:role="line"
         x="18.221094"
         y="756.28253"
         style="font-size:8px"
         id="tspan34" /></text>
    <circle
       style="fill:#ff0000;stroke:#000000;stroke-width:0.2;stroke-dasharray:none"
       id="circle34"
       cx="35.700001"
       cy="729.59998"
       r="2" />
    <text
       xml:space="preserve"
       style="font-size:8px;fill:#483e37;stroke:#000000;stroke-width:0.2;stroke-dasharray:none"
       x="18.221094"
       y="732.63751"
       id="text36"><tspan
         sodipodi:role="line"
         id="tspan35"
         x="18.221094"
         y="732.63751"
         style="font-size:8px">115</tspan><tspan
         sodipodi:role="line"
         x="18.221094"
         y="742.63751"
         style="font-size:8px"
         id="tspan36" /></text>
    <circle
       style="fill:#ff0000;stroke:#000000;stroke-width:0.2;stroke-dasharray:none"
       id="circle36"
       cx="35.700001"
       cy="709.09998"
       r="2" />
    <text
       xml:space="preserve"
       style="font-size:8px;fill:#483e37;stroke:#000000;stroke-width:0.2;stroke-dasharray:none"
       x="18.221094"
       y="712.63751"
       id="text38"><tspan
         sodipodi:role="line"
         id="tspan37"
         x="18.221094"
         y="712.63751"
         style="font-size:8px">127</tspan><tspan
         sodipodi:role="line"
         x="18.221094"
         y="722.63751"
         style="font-size:8px"
         id="tspan38" /></text>
    <circle
       style="fill:#ff0000;stroke:#000000;stroke-width:0.2;stroke-dasharray:none"
       id="circle38"
       cx="35.700001"
       cy="686.09998"
       r="2" />
    <text
       xml:space="preserve"
       style="font-size:8px;fill:#483e37;stroke:#000000;stroke-width:0.2;stroke-dasharray:none"
       x="18.221094"
       y="688.63751"
       id="text40"><tspan
         sodipodi:role="line"
         id="tspan39"
         x="18.221094"
         y="688.63751"
         style="font-size:8px">139</tspan><tspan
         sodipodi:role="line"
         x="18.221094"
         y="698.63751"
         style="font-size:8px"
         id="tspan40" /></text>
    <circle
       style="fill:#ff0000;stroke:#000000;stroke-width:0.2;stroke-dasharray:none"
       id="circle40"
       cx="35.700001"
       cy="652.09998"
       r="2" />
    <text
       xml:space="preserve"
       style="font-size:8px;fill:#483e37;stroke:#000000;stroke-width:0.2;stroke-dasharray:none"
       x="18.221094"
       y="654.63751"
       id="text42"><tspan
         sodipodi:role="line"
         id="tspan41"
         x="18.221094"
         y="654.63751"
         style="font-size:8px">158</tspan><tspan
         sodipodi:role="line"
         x="18.221094"
         y="664.63751"
         style="font-size:8px"
         id="tspan42" /></text>
    <circle
       style="fill:#ff0000;stroke:#000000;stroke-width:0.2;stroke-dasharray:none"
       id="circle42"
       cx="35.700001"
       cy="610.59998"
       r="2" />
    <text
       xml:space="preserve"
       style="font-size:8px;fill:#483e37;stroke:#000000;stroke-width:0.2;stroke-dasharray:none"
       x="18.221094"
       y="613.63751"
       id="text44"><tspan
         sodipodi:role="line"
         id="tspan43"
         x="18.221094"
         y="613.63751"
         style="font-size:8px">182</tspan><tspan
         sodipodi:role="line"
         x="18.221094"
         y="623.63751"
         style="font-size:8px"
         id="tspan44" /></text>
    <circle
       style="fill:#ff0000;stroke:#000000;stroke-width:0.2;stroke-dasharray:none"
       id="circle44"
       cx="35.700001"
       cy="542.59998"
       r="2" />
    <text
       xml:space="preserve"
       style="font-size:8px;fill:#483e37;stroke:#000000;stroke-width:0.2;stroke-dasharray:none"
       x="18.221094"
       y="545.63751"
       id="text46"><tspan
         sodipodi:role="line"
         id="tspan45"
         x="18.221094"
         y="545.63751"
         style="font-size:8px">219</tspan><tspan
         sodipodi:role="line"
         x="18.221094"
         y="555.63751"
         style="font-size:8px"
         id="tspan46" /></text>
    <circle
       style="fill:#ff0000;stroke:#000000;stroke-width:0.2;stroke-dasharray:none"
       id="circle46"
       cx="35.700001"
       cy="429.10001"
       r="2" />
    <circle
       style="fill:#ff0000;stroke:#000000;stroke-width:0.2;stroke-dasharray:none"
       id="circle48"
       cx="35.700001"
       cy="47.599998"
       r="2" />
    <text
       xml:space="preserve"
       style="font-size:8px;fill:#483e37;stroke:#000000;stroke-width:0.2;stroke-dasharray:none"
       x="18.221094"
       y="51.637512"
       id="text50"><tspan
         sodipodi:role="line"
         id="tspan49"
         x="18.221094"
         y="51.637512"
         style="font-size:8px">282</tspan><tspan
         sodipodi:role="line"
         x="18.221094"
         y="61.637512"
         style="font-size:8px"
         id="tspan50" /></text>
    <circle
       style="fill:#000080;stroke:#000000;stroke-width:0.262576;stroke-dasharray:none"
       id="circle50"
       cx="1093.9502"
       cy="742.99036"
       r="2.6257553" />
    <circle
       style="fill:#000080;stroke:#000000;stroke-width:0.262576;stroke-dasharray:none"
       id="circle51"
       cx="988.39337"
       cy="729.32977"
       r="2.6257553" />
    <circle
       style="fill:#000080;stroke:#000000;stroke-width:0.262576;stroke-dasharray:none"
       id="circle52"
       cx="882.29999"
       cy="708.66693"
       r="2.6257553" />
    <circle
       style="fill:#000080;stroke:#000000;stroke-width:0.262576;stroke-dasharray:none"
       id="circle53"
       cx="772.64215"
       cy="686.10303"
       r="2.6257553" />
    <circle
       style="fill:#000080;stroke:#000000;stroke-width:0.262576;stroke-dasharray:none"
       id="circle54"
       cx="670.65002"
       cy="652.16394"
       r="2.6257553" />
    <circle
       style="fill:#000080;stroke:#000000;stroke-width:0.262576;stroke-dasharray:none"
       id="circle55"
       cx="564.83002"
       cy="610.66443"
       r="2.6257553" />
    <circle
       style="fill:#000080;stroke:#000000;stroke-width:0.262576;stroke-dasharray:none"
       id="circle56"
       cx="459.20001"
       cy="542.92908"
       r="2.6257553" />
    <circle
       style="fill:#000080;stroke:#000000;stroke-width:0.262576;stroke-dasharray:none"
       id="circle57"
       cx="353.1499"
       cy="428.52493"
       r="2.6257553" />
    <circle
       style="fill:#000080;stroke:#000000;stroke-width:0.262576;stroke-dasharray:none"
       id="circle58"
       cx="247.25441"
       cy="47.233772"
       r="2.6257553" />
    <circle
       id="path58"
       style="fill:#000080;stroke:#000000"
       cx="462.78711"
       cy="545.80469"
       r="0.050342944" />
    <path
       style="fill:none;stroke:#00e900;stroke-width:2.2;stroke-dasharray:none;stroke-opacity:1"
       d="m 247.25441,49.859528 108.52125,378.665402 100.7986,114.40415 105.63,67.73535 105.82001,41.49951 107.24364,33.93909 107.03208,25.18966 103.46763,18.03708 105.55678,13.66059"
       id="path65" />
  </g>
</svg>
